<mxfile host="app.diagrams.net" modified="2024-01-01T05:18:41.744Z" agent="Mozilla/5.0 (Macintosh; Intel Mac OS X 10_15_7) AppleWebKit/537.36 (KHTML, like Gecko) Chrome/117.0.0.0 Safari/537.36" etag="cekOlONq3fpI_NzQJZd-" version="22.1.16" type="github">
  <diagram name="Page-1" id="v1W6G9yQt5CyLuTWBVgW">
    <mxGraphModel dx="2074" dy="1182" grid="1" gridSize="10" guides="1" tooltips="1" connect="1" arrows="1" fold="1" page="1" pageScale="1" pageWidth="850" pageHeight="1100" math="0" shadow="0">
      <root>
        <mxCell id="0" />
        <mxCell id="1" parent="0" />
        <mxCell id="PDr6hL4iP4VJMrK2rr_W-3" value="" style="rounded=0;orthogonalLoop=1;jettySize=auto;html=1;entryX=0.5;entryY=1;entryDx=0;entryDy=0;" edge="1" parent="1" source="PDr6hL4iP4VJMrK2rr_W-1" target="PDr6hL4iP4VJMrK2rr_W-1">
          <mxGeometry relative="1" as="geometry" />
        </mxCell>
        <mxCell id="PDr6hL4iP4VJMrK2rr_W-1" value="BootStrapClassLoader" style="rounded=1;whiteSpace=wrap;html=1;" vertex="1" parent="1">
          <mxGeometry x="338" y="80" width="175" height="60" as="geometry" />
        </mxCell>
        <mxCell id="PDr6hL4iP4VJMrK2rr_W-4" value="" style="edgeStyle=orthogonalEdgeStyle;rounded=0;orthogonalLoop=1;jettySize=auto;html=1;" edge="1" parent="1" source="PDr6hL4iP4VJMrK2rr_W-2" target="PDr6hL4iP4VJMrK2rr_W-1">
          <mxGeometry relative="1" as="geometry" />
        </mxCell>
        <mxCell id="PDr6hL4iP4VJMrK2rr_W-2" value="ExtensionClassLoader" style="whiteSpace=wrap;html=1;rounded=1;" vertex="1" parent="1">
          <mxGeometry x="340" y="220" width="170" height="60" as="geometry" />
        </mxCell>
        <mxCell id="PDr6hL4iP4VJMrK2rr_W-7" value="" style="edgeStyle=orthogonalEdgeStyle;rounded=0;orthogonalLoop=1;jettySize=auto;html=1;" edge="1" parent="1" source="PDr6hL4iP4VJMrK2rr_W-5" target="PDr6hL4iP4VJMrK2rr_W-2">
          <mxGeometry relative="1" as="geometry" />
        </mxCell>
        <mxCell id="PDr6hL4iP4VJMrK2rr_W-5" value="ApplicationClassLoader" style="whiteSpace=wrap;html=1;rounded=1;" vertex="1" parent="1">
          <mxGeometry x="340" y="360" width="170" height="60" as="geometry" />
        </mxCell>
        <mxCell id="PDr6hL4iP4VJMrK2rr_W-9" style="edgeStyle=orthogonalEdgeStyle;rounded=0;orthogonalLoop=1;jettySize=auto;html=1;exitX=1;exitY=0;exitDx=0;exitDy=0;entryX=0.5;entryY=1;entryDx=0;entryDy=0;" edge="1" parent="1" source="PDr6hL4iP4VJMrK2rr_W-8" target="PDr6hL4iP4VJMrK2rr_W-5">
          <mxGeometry relative="1" as="geometry" />
        </mxCell>
        <mxCell id="PDr6hL4iP4VJMrK2rr_W-8" value="CustomClassLoader" style="rounded=1;whiteSpace=wrap;html=1;" vertex="1" parent="1">
          <mxGeometry x="150.5" y="580" width="180" height="70" as="geometry" />
        </mxCell>
        <mxCell id="PDr6hL4iP4VJMrK2rr_W-11" style="edgeStyle=orthogonalEdgeStyle;rounded=0;orthogonalLoop=1;jettySize=auto;html=1;exitX=0;exitY=0;exitDx=0;exitDy=0;entryX=0.5;entryY=1;entryDx=0;entryDy=0;" edge="1" parent="1" source="PDr6hL4iP4VJMrK2rr_W-10" target="PDr6hL4iP4VJMrK2rr_W-5">
          <mxGeometry relative="1" as="geometry" />
        </mxCell>
        <mxCell id="PDr6hL4iP4VJMrK2rr_W-10" value="CustomClassLoader" style="rounded=1;whiteSpace=wrap;html=1;" vertex="1" parent="1">
          <mxGeometry x="520.5" y="580" width="180" height="70" as="geometry" />
        </mxCell>
      </root>
    </mxGraphModel>
  </diagram>
</mxfile>
